<svg width="25" height="25" viewBox="0 0 25 25" fill="none" xmlns="http://www.w3.org/2000/svg">
<path fill-rule="evenodd" clip-rule="evenodd" d="M17.75 1C21.4779 1 24.5 4.02208 24.5 7.75V17.75C24.5 21.4779 21.4779 24.5 17.75 24.5H7.75C4.02208 24.5 1 21.4779 1 17.75V7.75C1 4.02208 4.02208 1 7.75 1H17.75ZM17.75 2.5H7.75C4.85051 2.5 2.5 4.85051 2.5 7.75V17.75C2.5 20.6495 4.85051 23 7.75 23H17.75C20.6495 23 23 20.6495 23 17.75V7.75C23 4.85051 20.6495 2.5 17.75 2.5ZM13.4932 6.64823C13.4435 6.28215 13.1297 6 12.75 6L12.6482 6.00685L12.5506 6.02679C12.2332 6.11411 12 6.40482 12 6.75V11.999L6.75 12L6.64823 12.0068C6.28215 12.0565 6 12.3703 6 12.75L6.00685 12.8518C6.05651 13.2178 6.3703 13.5 6.75 13.5L12 13.499V18.75L12.0068 18.8518C12.0565 19.2178 12.3703 19.5 12.75 19.5L12.8518 19.4932C13.2178 19.4435 13.5 19.1297 13.5 18.75V13.5H18.75L18.8518 13.4932C19.2178 13.4435 19.5 13.1297 19.5 12.75L19.4932 12.6482C19.4435 12.2822 19.1297 12 18.75 12H13.5V6.75L13.4932 6.64823Z" fill="#262626"/>
<path d="M12.75 6V5.5H12.7332L12.7164 5.50113L12.75 6ZM13.4932 6.64823L13.992 6.61467L13.9909 6.59778L13.9886 6.58101L13.4932 6.64823ZM12.6482 6.00685L12.6147 5.50797L12.5811 5.51023L12.5481 5.51697L12.6482 6.00685ZM12.5506 6.02679L12.4505 5.53691L12.4341 5.54026L12.418 5.5447L12.5506 6.02679ZM12 11.999L12.0001 12.499L12.5 12.4989V11.999H12ZM6.75 12L6.7499 11.5L6.73315 11.5L6.71644 11.5011L6.75 12ZM6.64823 12.0068L6.61467 11.508L6.59778 11.5091L6.58101 11.5114L6.64823 12.0068ZM6 12.75H5.5V12.7668L5.50113 12.7836L6 12.75ZM6.00685 12.8518L5.50797 12.8853L5.50911 12.9022L5.51138 12.919L6.00685 12.8518ZM6.75 13.5L6.75 14L6.7501 14L6.75 13.5ZM12 13.499H12.5V12.9989L11.9999 12.999L12 13.499ZM12 18.75H11.5V18.7668L11.5011 18.7836L12 18.75ZM12.0068 18.8518L11.508 18.8853L11.5091 18.9022L11.5114 18.919L12.0068 18.8518ZM12.75 19.5V20H12.7668L12.7836 19.9989L12.75 19.5ZM12.8518 19.4932L12.8853 19.992L12.9022 19.9909L12.919 19.9886L12.8518 19.4932ZM13.5 13.5V13H13V13.5H13.5ZM18.75 13.5V14H18.7668L18.7836 13.9989L18.75 13.5ZM18.8518 13.4932L18.8853 13.992L18.9022 13.9909L18.919 13.9886L18.8518 13.4932ZM19.5 12.75H20V12.7332L19.9989 12.7164L19.5 12.75ZM19.4932 12.6482L19.992 12.6147L19.9909 12.5978L19.9886 12.581L19.4932 12.6482ZM13.5 12H13V12.5H13.5V12ZM13.5 6.75H14V6.7332L13.9989 6.71644L13.5 6.75ZM25 7.75C25 3.74594 21.7541 0.5 17.75 0.5V1.5C21.2018 1.5 24 4.29822 24 7.75H25ZM25 17.75V7.75H24V17.75H25ZM17.75 25C21.7541 25 25 21.7541 25 17.75H24C24 21.2018 21.2018 24 17.75 24V25ZM7.75 25H17.75V24H7.75V25ZM0.5 17.75C0.5 21.7541 3.74594 25 7.75 25V24C4.29822 24 1.5 21.2018 1.5 17.75H0.5ZM0.5 7.75V17.75H1.5V7.75H0.5ZM7.75 0.5C3.74594 0.5 0.5 3.74594 0.5 7.75H1.5C1.5 4.29822 4.29822 1.5 7.75 1.5V0.5ZM17.75 0.5H7.75V1.5H17.75V0.5ZM7.75 3H17.75V2H7.75V3ZM3 7.75C3 5.12665 5.12665 3 7.75 3V2C4.57436 2 2 4.57436 2 7.75H3ZM3 17.75V7.75H2V17.75H3ZM7.75 22.5C5.12665 22.5 3 20.3734 3 17.75H2C2 20.9256 4.57436 23.5 7.75 23.5V22.5ZM17.75 22.5H7.75V23.5H17.75V22.5ZM22.5 17.75C22.5 20.3734 20.3734 22.5 17.75 22.5V23.5C20.9256 23.5 23.5 20.9256 23.5 17.75H22.5ZM22.5 7.75V17.75H23.5V7.75H22.5ZM17.75 3C20.3734 3 22.5 5.12665 22.5 7.75H23.5C23.5 4.57436 20.9256 2 17.75 2V3ZM12.75 6.5C12.8762 6.5 12.9812 6.59391 12.9977 6.71544L13.9886 6.58101C13.9058 5.9704 13.3832 5.5 12.75 5.5V6.5ZM12.6818 6.50572L12.7836 6.49887L12.7164 5.50113L12.6147 5.50797L12.6818 6.50572ZM12.6507 6.51667L12.7483 6.49672L12.5481 5.51697L12.4505 5.53691L12.6507 6.51667ZM12.5 6.75C12.5 6.63565 12.5772 6.53805 12.6832 6.50888L12.418 5.5447C11.8892 5.69016 11.5 6.17399 11.5 6.75H12.5ZM12.5 11.999V6.75H11.5V11.999H12.5ZM6.7501 12.5L12.0001 12.499L11.9999 11.499L6.7499 11.5L6.7501 12.5ZM6.68179 12.5057L6.78356 12.4989L6.71644 11.5011L6.61467 11.508L6.68179 12.5057ZM6.5 12.75C6.5 12.6238 6.59391 12.5188 6.71544 12.5023L6.58101 11.5114C5.9704 11.5942 5.5 12.1168 5.5 12.75H6.5ZM6.50572 12.8182L6.49887 12.7164L5.50113 12.7836L5.50797 12.8853L6.50572 12.8182ZM6.75 13C6.62384 13 6.5188 12.9061 6.50231 12.7846L5.51138 12.919C5.59422 13.5296 6.11676 14 6.75 14V13ZM11.9999 12.999L6.7499 13L6.7501 14L12.0001 13.999L11.9999 12.999ZM12.5 18.75V13.499H11.5V18.75H12.5ZM12.5057 18.8182L12.4989 18.7164L11.5011 18.7836L11.508 18.8853L12.5057 18.8182ZM12.75 19C12.6238 19 12.5188 18.9061 12.5023 18.7846L11.5114 18.919C11.5942 19.5296 12.1168 20 12.75 20V19ZM12.8182 18.9943L12.7164 19.0011L12.7836 19.9989L12.8853 19.992L12.8182 18.9943ZM13 18.75C13 18.8762 12.9061 18.9812 12.7846 18.9977L12.919 19.9886C13.5296 19.9058 14 19.3832 14 18.75H13ZM13 13.5V18.75H14V13.5H13ZM18.75 13H13.5V14H18.75V13ZM18.8182 12.9943L18.7164 13.0011L18.7836 13.9989L18.8853 13.992L18.8182 12.9943ZM19 12.75C19 12.8762 18.9061 12.9812 18.7846 12.9977L18.919 13.9886C19.5296 13.9058 20 13.3832 20 12.75H19ZM18.9943 12.6818L19.0011 12.7836L19.9989 12.7164L19.992 12.6147L18.9943 12.6818ZM18.75 12.5C18.8762 12.5 18.9812 12.5939 18.9977 12.7154L19.9886 12.581C19.9058 11.9704 19.3832 11.5 18.75 11.5V12.5ZM13.5 12.5H18.75V11.5H13.5V12.5ZM13 6.75V12H14V6.75H13ZM12.9943 6.68179L13.0011 6.78356L13.9989 6.71644L13.992 6.61467L12.9943 6.68179Z" fill="black"/>
</svg>
