<svg width="90" height="69" viewBox="0 0 90 69" fill="none" xmlns="http://www.w3.org/2000/svg">
<path d="M13.0328 20.0901H13.3278C16.0819 19.8934 18.1475 17.5327 18.0492 14.7786C17.8524 12.0245 15.4918 9.95897 12.7377 10.0573C9.98358 10.1557 7.91801 12.6147 8.01637 15.3688C8.11473 18.0245 10.377 20.0901 13.0328 20.0901ZM10.6721 13.0081C11.1639 12.418 11.9508 12.0245 12.7377 12.0245H12.9344C14.6065 12.0245 15.9836 13.4016 15.9836 15.0737C15.9836 16.7459 14.6065 18.1229 12.9344 18.1229C11.2623 18.1229 9.88522 16.7459 9.88522 15.0737C9.88522 14.2868 10.1803 13.5983 10.6721 13.0081Z" fill="black"/>
<path d="M80.3114 14.582L54.0492 13.1066L53.8524 10.1558C53.5573 4.54922 48.7377 0.221352 43.0328 0.516434L9.68849 2.38529C4.08194 2.68037 -0.245933 7.5984 0.049149 13.205L1.918 46.6476V47.4345C2.60653 52.5492 6.9344 56.3853 12.0492 56.3853H12.6393L33.9836 55.205V55.7951C33.6885 61.4017 37.918 66.3197 43.6229 66.6148L77.0656 68.582H77.6557C83.0655 68.582 87.5901 64.3525 87.8852 58.9427L89.8524 25.5C90.2459 19.7951 85.918 14.9755 80.3114 14.582ZM4.08194 7.1066C5.55735 5.43447 7.62292 4.45086 9.78686 4.3525L43.2295 2.48365C47.7541 2.18857 51.6885 5.72955 51.9836 10.2541L52.1803 13.0082L46.9672 12.7132C41.3606 12.4181 36.4426 16.6476 36.1475 22.3525L35.5573 31.6968L26.2131 42.2214C26.0164 42.5164 25.6229 42.6148 25.2295 42.7132C24.836 42.7132 24.541 42.6148 24.2459 42.3197L16.5737 35.4345C15.1967 34.1558 13.1311 34.3525 11.8524 35.7296L3.88521 44.6804L2.11472 13.205C1.918 10.9427 2.70489 8.77873 4.08194 7.1066ZM12.6393 54.3197C8.40981 54.5164 4.6721 51.5656 3.98358 47.3361L13.2295 37.0082C13.4262 36.7132 13.8196 36.6148 14.2131 36.5164C14.6065 36.5164 14.9016 36.6148 15.1967 36.9099L22.8688 43.7951C23.5573 44.3853 24.4426 44.6804 25.3278 44.6804C26.2131 44.6804 27 44.1886 27.5901 43.5984L35.2623 34.9427L34.1803 53.2378L12.6393 54.3197ZM87.8852 25.3033L85.918 58.7459C85.6229 63.2705 81.6885 66.8115 77.1639 66.5164L43.7213 64.5492C39.1967 64.2541 35.6557 60.3197 35.9508 55.7951L37.918 22.3525C38.2131 18.0246 41.7541 14.582 46.1803 14.582H46.6721L80.1147 16.5492C84.7377 16.8443 88.1803 20.7787 87.8852 25.3033Z" fill="black"/>
<path d="M73.918 37.4016L57.2951 26.4836C55.2295 25.1065 52.4754 25.6967 51.1967 27.7623C50.8033 28.4508 50.5082 29.1393 50.5082 29.9262L49.3279 49.6967C49.2295 52.1557 51 54.2213 53.459 54.418H53.7541C54.4426 54.418 55.1312 54.2213 55.7213 53.9262L73.4262 45.0738C75.5902 43.9918 76.4754 41.3361 75.3934 39.1721C75 38.4836 74.5082 37.8934 73.918 37.4016ZM72.541 43.3033L54.8361 52.1557C54.4426 52.3524 54.0492 52.4508 53.5574 52.4508C53.1639 52.4508 52.6721 52.2541 52.3771 52.0574C51.6885 51.5656 51.1967 50.7787 51.2951 49.8934L52.4754 30.1229C52.5738 29.2377 53.0656 28.4508 53.8525 28.0574C54.6394 27.6639 55.5246 27.7623 56.3115 28.1557L72.7377 39.0738C73.918 39.8606 74.2131 41.3361 73.4262 42.418C73.2295 42.8115 72.9344 43.1065 72.541 43.3033Z" fill="black"/>
</svg>
