<svg width="22" height="22" viewBox="0 0 22 22" fill="none" xmlns="http://www.w3.org/2000/svg">
<path fill-rule="evenodd" clip-rule="evenodd" d="M5.549 4.01294C5.24106 4.01294 4.94003 4.10426 4.68398 4.27534C4.42793 4.44643 4.22837 4.6896 4.11052 4.9741C3.99268 5.25861 3.96185 5.57167 4.02192 5.87369C4.082 6.17572 4.23029 6.45315 4.44804 6.6709C4.66579 6.88865 4.94322 7.03695 5.24525 7.09702C5.54728 7.1571 5.86034 7.12627 6.14484 7.00842C6.42935 6.89057 6.67252 6.69101 6.8436 6.43496C7.01469 6.17891 7.106 5.87789 7.106 5.56994C7.106 5.157 6.94196 4.76097 6.64997 4.46897C6.35798 4.17698 5.96195 4.01294 5.549 4.01294Z" fill="#8E8E8E"/>
<path d="M1 17.6051L4.901 13.7051C5.07128 13.5348 5.30221 13.4392 5.543 13.4392C5.78379 13.4392 6.01472 13.5348 6.185 13.7051L8.992 16.5111C9.16224 16.681 9.39295 16.7765 9.6335 16.7765C9.87405 16.7765 10.1048 16.681 10.275 16.5111L15.809 10.9771C15.9792 10.8071 16.21 10.7117 16.4505 10.7117C16.691 10.7117 16.9218 10.8071 17.092 10.9771L20.997 14.8821" stroke="black" stroke-width="2" stroke-linejoin="round"/>
<path d="M17.44 1.00393C18.3842 1.00393 19.2897 1.379 19.9573 2.04663C20.6249 2.71426 21 3.61976 21 4.56393V17.4369C21 18.3811 20.6249 19.2866 19.9573 19.9542C19.2897 20.6219 18.3842 20.9969 17.44 20.9969H4.568C3.62382 20.9969 2.71833 20.6219 2.0507 19.9542C1.38307 19.2866 1.008 18.3811 1.008 17.4369V4.56293C1.008 3.61876 1.38307 2.71326 2.0507 2.04563C2.71833 1.378 3.62382 1.00293 4.568 1.00293L17.44 1.00393Z" stroke="black" stroke-width="2" stroke-linecap="round" stroke-linejoin="round"/>
</svg>
