<svg width="18" height="18" viewBox="0 0 18 18" fill="none" xmlns="http://www.w3.org/2000/svg">
<path d="M17.25 8.35827H9.73333V0.749935C9.73333 0.383268 9.45833 0.0166016 9 0.0166016C8.54166 0.0166016 8.26666 0.383268 8.26666 0.749935V8.2666H0.749996C0.383329 8.2666 0.0166626 8.5416 0.0166626 8.99994C0.0166626 9.45827 0.291663 9.73327 0.749996 9.73327H8.26666V17.2499C8.26666 17.6166 8.54166 17.9833 9 17.9833C9.45833 17.9833 9.73333 17.7083 9.73333 17.2499V9.73327H17.25C17.6167 9.73327 17.9833 9.45827 17.9833 8.99994C17.9833 8.5416 17.6167 8.35827 17.25 8.35827Z" fill="#8E8E8E"/>
</svg>
