<svg width="22" height="16" viewBox="0 0 22 16" fill="none" xmlns="http://www.w3.org/2000/svg">
<path d="M18 16H4C2.93946 15.9989 1.92266 15.5772 1.17274 14.8273C0.422826 14.0773 0.00105895 13.0605 0 12V4C0.00105895 2.93946 0.422826 1.92266 1.17274 1.17274C1.92266 0.422826 2.93946 0.00105895 4 0H18C19.0605 0.00105895 20.0773 0.422826 20.8273 1.17274C21.5772 1.92266 21.9989 2.93946 22 4V12C21.9989 13.0605 21.5772 14.0773 20.8273 14.8273C20.0773 15.5772 19.0605 15.9989 18 16ZM4 2C3.46973 2.00053 2.96133 2.21141 2.58637 2.58637C2.21141 2.96133 2.00053 3.46973 2 4V12C2.00053 12.5303 2.21141 13.0387 2.58637 13.4136C2.96133 13.7886 3.46973 13.9995 4 14H18C18.5303 13.9995 19.0387 13.7886 19.4136 13.4136C19.7886 13.0387 19.9995 12.5303 20 12V4C19.9995 3.46973 19.7886 2.96133 19.4136 2.58637C19.0387 2.21141 18.5303 2.00053 18 2H4Z" fill="#8E8E8E"/>
</svg>
