<svg width="20" height="20" viewBox="0 0 20 20" fill="none" xmlns="http://www.w3.org/2000/svg">
<path d="M8.0004 18H2.0001V12C2.0001 11.7348 1.89474 11.4804 1.70719 11.2929C1.51965 11.1054 1.26528 11 1.00005 11C0.73482 11 0.480454 11.1054 0.292908 11.2929C0.105362 11.4804 0 11.7348 0 12V19C0 19.2652 0.105362 19.5196 0.292908 19.7071C0.480454 19.8946 0.73482 20 1.00005 20H8.0004C8.26563 20 8.52 19.8946 8.70754 19.7071C8.89509 19.5196 9.00045 19.2652 9.00045 19C9.00045 18.7348 8.89509 18.4804 8.70754 18.2929C8.52 18.1054 8.26563 18 8.0004 18ZM18.9999 0H12.0006C11.7354 0 11.481 0.105357 11.2935 0.292893C11.1059 0.48043 11.0005 0.734784 11.0005 1C11.0005 1.26522 11.1059 1.51957 11.2935 1.70711C11.481 1.89464 11.7354 2 12.0006 2H17.9999V8C17.9999 8.26522 18.1053 8.51957 18.2928 8.70711C18.4804 8.89464 18.7347 9 18.9999 9C19.2652 9 19.5195 8.89464 19.7071 8.70711C19.8946 8.51957 20 8.26522 20 8V1C20 0.734784 19.8946 0.48043 19.7071 0.292893C19.5195 0.105357 19.2652 0 18.9999 0Z" fill="white"/>
</svg>
