<svg width="16" height="16" viewBox="0 0 16 16" fill="none" xmlns="http://www.w3.org/2000/svg">
<path fill-rule="evenodd" clip-rule="evenodd" d="M12.6667 10.0001V3.33341C12.666 2.62639 12.3848 1.94852 11.8849 1.44858C11.3849 0.948632 10.707 0.667454 10 0.666748H3.33335C2.62633 0.667454 1.94846 0.948632 1.44852 1.44858C0.948571 1.94852 0.667393 2.62639 0.666687 3.33341V10.0001C0.667393 10.7071 0.948571 11.385 1.44852 11.8849C1.94846 12.3849 2.62633 12.666 3.33335 12.6667H10C10.707 12.666 11.3849 12.3849 11.8849 11.8849C12.3848 11.385 12.666 10.7071 12.6667 10.0001ZM2.00002 10.0001V3.33341C2.00037 2.9799 2.14096 2.64097 2.39093 2.391C2.64091 2.14102 2.97984 2.00043 3.33335 2.00008H10C10.3535 2.00043 10.6925 2.14102 10.9424 2.391C11.1924 2.64097 11.333 2.9799 11.3334 3.33341V10.0001C11.333 10.3536 11.1924 10.6925 10.9424 10.9425C10.6925 11.1925 10.3535 11.3331 10 11.3334H3.33335C2.97984 11.3331 2.64091 11.1925 2.39093 10.9425C2.14096 10.6925 2.00037 10.3536 2.00002 10.0001ZM14.5747 4.15141C14.5287 4.1036 14.4695 4.07057 14.4046 4.05654C14.3397 4.04252 14.2722 4.04813 14.2105 4.07266C14.1489 4.09719 14.0959 4.13954 14.0584 4.19429C14.0209 4.24905 14.0006 4.31373 14 4.38008V10.0007C14 11.0616 13.5786 12.079 12.8284 12.8292C12.0783 13.5793 11.0609 14.0007 10 14.0007H4.38669C4.32023 14.0012 4.25542 14.0214 4.20044 14.0588C4.14546 14.0961 4.10278 14.1489 4.07781 14.2105C4.05283 14.272 4.04668 14.3396 4.06012 14.4047C4.07357 14.4698 4.10602 14.5294 4.15335 14.5761C4.64544 15.0614 5.30885 15.3335 6.00002 15.3334H10C11.4145 15.3334 12.7711 14.7715 13.7713 13.7713C14.7715 12.7711 15.3334 11.4146 15.3334 10.0001V6.00008C15.3332 5.30812 15.0606 4.64402 14.5747 4.15141Z" fill="white"/>
</svg>
