<svg width="96" height="77" viewBox="0 0 96 77" fill="none" xmlns="http://www.w3.org/2000/svg">
<path d="M16.0328 24.0901H16.3278C19.0819 23.8934 21.1475 21.5327 21.0492 18.7786C20.8524 16.0245 18.4918 13.959 15.7377 14.0573C12.9836 14.1557 10.918 16.6147 11.0164 19.3688C11.1147 22.0245 13.377 24.0901 16.0328 24.0901ZM13.6721 17.0081C14.1639 16.418 14.9508 16.0245 15.7377 16.0245H15.9344C17.6065 16.0245 18.9836 17.4016 18.9836 19.0737C18.9836 20.7459 17.6065 22.1229 15.9344 22.1229C14.2623 22.1229 12.8852 20.7459 12.8852 19.0737C12.8852 18.2868 13.1803 17.5983 13.6721 17.0081Z" fill="black"/>
<path d="M83.3114 18.582L57.0492 17.1066L56.8524 14.1558C56.5573 8.54922 51.7377 4.22135 46.0328 4.51643L12.6885 6.38529C7.08194 6.68037 2.75407 11.5984 3.04915 17.205L4.918 50.6476V51.4345C5.60653 56.5492 9.9344 60.3853 15.0492 60.3853H15.6393L36.9836 59.205V59.7951C36.6885 65.4017 40.918 70.3197 46.6229 70.6148L80.0656 72.582H80.6557C86.0655 72.582 90.5901 68.3525 90.8852 62.9427L92.8524 29.5C93.2459 23.7951 88.918 18.9755 83.3114 18.582ZM7.08194 11.1066C8.55735 9.43447 10.6229 8.45086 12.7869 8.3525L46.2295 6.48365C50.7541 6.18857 54.6885 9.72955 54.9836 14.2541L55.1803 17.0082L49.9672 16.7132C44.3606 16.4181 39.4426 20.6476 39.1475 26.3525L38.5573 35.6968L29.2131 46.2214C29.0164 46.5164 28.6229 46.6148 28.2295 46.7132C27.836 46.7132 27.541 46.6148 27.2459 46.3197L19.5737 39.4345C18.1967 38.1558 16.1311 38.3525 14.8524 39.7296L6.88521 48.6804L5.11472 17.205C4.918 14.9427 5.70489 12.7787 7.08194 11.1066ZM15.6393 58.3197C11.4098 58.5164 7.6721 55.5656 6.98358 51.3361L16.2295 41.0082C16.4262 40.7132 16.8196 40.6148 17.2131 40.5164C17.6065 40.5164 17.9016 40.6148 18.1967 40.9099L25.8688 47.7951C26.5573 48.3853 27.4426 48.6804 28.3278 48.6804C29.2131 48.6804 30 48.1886 30.5901 47.5984L38.2623 38.9427L37.1803 57.2378L15.6393 58.3197ZM90.8852 29.3033L88.918 62.7459C88.6229 67.2705 84.6885 70.8115 80.1639 70.5164L46.7213 68.5492C42.1967 68.2541 38.6557 64.3197 38.9508 59.7951L40.918 26.3525C41.2131 22.0246 44.7541 18.582 49.1803 18.582H49.6721L83.1147 20.5492C87.7377 20.8443 91.1803 24.7787 90.8852 29.3033Z" fill="black"/>
<path d="M76.918 41.4016L60.2951 30.4836C58.2295 29.1065 55.4754 29.6967 54.1967 31.7623C53.8033 32.4508 53.5082 33.1393 53.5082 33.9262L52.3279 53.6967C52.2295 56.1557 54 58.2213 56.459 58.418H56.7541C57.4426 58.418 58.1312 58.2213 58.7213 57.9262L76.4262 49.0738C78.5902 47.9918 79.4754 45.3361 78.3934 43.1721C78 42.4836 77.5082 41.8934 76.918 41.4016ZM75.541 47.3033L57.8361 56.1557C57.4426 56.3524 57.0492 56.4508 56.5574 56.4508C56.1639 56.4508 55.6721 56.2541 55.3771 56.0574C54.6885 55.5656 54.1967 54.7787 54.2951 53.8934L55.4754 34.1229C55.5738 33.2377 56.0656 32.4508 56.8525 32.0574C57.6394 31.6639 58.5246 31.7623 59.3115 32.1557L75.7377 43.0738C76.918 43.8606 77.2131 45.3361 76.4262 46.418C76.2295 46.8115 75.9344 47.1065 75.541 47.3033Z" fill="black"/>
</svg>
